<?xml version="1.0" encoding="utf-8"?>
<!DOCTYPE svg PUBLIC "-//W3C//DTD SVG 1.1//EN" "http://www.w3.org/Graphics/SVG/1.1/DTD/svg11.dtd">
<svg version="1.1" xmlns="http://www.w3.org/2000/svg" xmlns:xlink="http://www.w3.org/1999/xlink" xmlns:xml="http://www.w3.org/XML/1998/namespace" width="1067px" height="456px" viewBox="0, 0, 1067, 456" preserveAspectRatio="none" contentStyleType="text/css" zoomAndPan="magnify" style="background:#FFFFFF;">
  <defs />
  <g>
    <rect x="442.75" y="10" width="177" height="27.6094" id="_title" stroke-width="1" style="fill:none;stroke:none;" />
    <text x="447.75" y="29.5332" textLength="167" lengthAdjust="spacing" font-family="sans-serif" font-size="14" font-weight="bold" style="fill:black;">Оформление подписки</text>
    <line x1="38" y1="124.8281" x2="38" y2="359.6406" stroke-width="0.5" stroke-dasharray="5 5" style="stroke:#181818;" />
    <line x1="324.5" y1="124.8281" x2="324.5" y2="359.6406" stroke-width="0.5" stroke-dasharray="5 5" style="stroke:#181818;" />
    <line x1="644.5" y1="124.8281" x2="644.5" y2="359.6406" stroke-width="0.5" stroke-dasharray="5 5" style="stroke:#181818;" />
    <line x1="1032.5" y1="124.8281" x2="1032.5" y2="359.6406" stroke-width="0.5" stroke-dasharray="5 5" style="stroke:#181818;" />
    <text x="5" y="121.752" textLength="61" lengthAdjust="spacing" font-family="sans-serif" font-size="14" style="fill:black;">Customer</text>
    <ellipse cx="38.5" cy="55.7188" rx="8" ry="8" stroke-width="0.5" style="fill:#E2E2F0;stroke:#181818;" />
    <path d="M38.5 63.7188 L38.5 90.7188 M25.5 71.7188 L51.5 71.7188 M38.5 90.7188 L25.5 105.7188 M38.5 90.7188 L51.5 105.7188" stroke-width="0.5" style="fill:none;stroke:#181818;" />
    <text x="5" y="373.1738" textLength="61" lengthAdjust="spacing" font-family="sans-serif" font-size="14" style="fill:black;">Customer</text>
    <ellipse cx="38.5" cy="384.75" rx="8" ry="8" stroke-width="0.5" style="fill:#E2E2F0;stroke:#181818;" />
    <path d="M38.5 392.75 L38.5 419.75 M25.5 400.75 L51.5 400.75 M38.5 419.75 L25.5 434.75 M38.5 419.75 L51.5 434.75" stroke-width="0.5" style="fill:none;stroke:#181818;" />
    <text x="313" y="104.1426" textLength="17" lengthAdjust="spacing" font-family="sans-serif" font-size="14" style="fill:black;">ЛК</text>
    <text x="282.5" y="121.752" textLength="78" lengthAdjust="spacing" font-family="sans-serif" font-size="14" style="fill:black;">MarketPlace</text>
    <path d="M304 61.6094 L304 85.6094 M304 73.6094 L321 73.6094" stroke-width="0.5" style="fill:none;stroke:#181818;" />
    <ellipse cx="333" cy="73.6094" rx="12" ry="12" stroke-width="0.5" style="fill:#E2E2F0;stroke:#181818;" />
    <text x="313" y="373.1738" textLength="17" lengthAdjust="spacing" font-family="sans-serif" font-size="14" style="fill:black;">ЛК</text>
    <text x="282.5" y="390.7832" textLength="78" lengthAdjust="spacing" font-family="sans-serif" font-size="14" style="fill:black;">MarketPlace</text>
    <path d="M304 397.8594 L304 421.8594 M304 409.8594 L321 409.8594" stroke-width="0.5" style="fill:none;stroke:#181818;" />
    <ellipse cx="333" cy="409.8594" rx="12" ry="12" stroke-width="0.5" style="fill:#E2E2F0;stroke:#181818;" />
    <text x="609" y="104.1426" textLength="65" lengthAdjust="spacing" font-family="sans-serif" font-size="14" style="fill:black;">BACKEND</text>
    <text x="602.5" y="121.752" textLength="78" lengthAdjust="spacing" font-family="sans-serif" font-size="14" style="fill:black;">MarketPlace</text>
    <ellipse cx="644.5" cy="73.6094" rx="12" ry="12" stroke-width="0.5" style="fill:#E2E2F0;stroke:#181818;" />
    <polygon points="640.5,61.6094 646.5,56.6094 644.5,61.6094 646.5,66.6094 640.5,61.6094" stroke-width="1" style="fill:#181818;stroke:#181818;" />
    <text x="609" y="373.1738" textLength="65" lengthAdjust="spacing" font-family="sans-serif" font-size="14" style="fill:black;">BACKEND</text>
    <text x="602.5" y="390.7832" textLength="78" lengthAdjust="spacing" font-family="sans-serif" font-size="14" style="fill:black;">MarketPlace</text>
    <ellipse cx="644.5" cy="409.8594" rx="12" ry="12" stroke-width="0.5" style="fill:#E2E2F0;stroke:#181818;" />
    <polygon points="640.5,397.8594 646.5,392.8594 644.5,397.8594 646.5,402.8594 640.5,397.8594" stroke-width="1" style="fill:#181818;stroke:#181818;" />
    <text x="1020" y="104.1426" textLength="19" lengthAdjust="spacing" font-family="sans-serif" font-size="14" style="fill:black;">DB</text>
    <text x="1006.5" y="121.752" textLength="46" lengthAdjust="spacing" font-family="sans-serif" font-size="14" style="fill:black;">MySQL</text>
    <path d="M1014.5 53.6094 C1014.5 43.6094 1032.5 43.6094 1032.5 43.6094 C1032.5 43.6094 1050.5 43.6094 1050.5 53.6094 L1050.5 79.6094 C1050.5 89.6094 1032.5 89.6094 1032.5 89.6094 C1032.5 89.6094 1014.5 89.6094 1014.5 79.6094 L1014.5 53.6094" stroke-width="1.5" style="fill:#E2E2F0;stroke:#181818;" />
    <path d="M1014.5 53.6094 C1014.5 63.6094 1032.5 63.6094 1032.5 63.6094 C1032.5 63.6094 1050.5 63.6094 1050.5 53.6094" stroke-width="1.5" style="fill:none;stroke:#181818;" />
    <text x="1020" y="373.1738" textLength="19" lengthAdjust="spacing" font-family="sans-serif" font-size="14" style="fill:black;">DB</text>
    <text x="1006.5" y="390.7832" textLength="46" lengthAdjust="spacing" font-family="sans-serif" font-size="14" style="fill:black;">MySQL</text>
    <path d="M1014.5 403.8594 C1014.5 393.8594 1032.5 393.8594 1032.5 393.8594 C1032.5 393.8594 1050.5 393.8594 1050.5 403.8594 L1050.5 429.8594 C1050.5 439.8594 1032.5 439.8594 1032.5 439.8594 C1032.5 439.8594 1014.5 439.8594 1014.5 429.8594 L1014.5 403.8594" stroke-width="1.5" style="fill:#E2E2F0;stroke:#181818;" />
    <path d="M1014.5 403.8594 C1014.5 413.8594 1032.5 413.8594 1032.5 413.8594 C1032.5 413.8594 1050.5 413.8594 1050.5 403.8594" stroke-width="1.5" style="fill:none;stroke:#181818;" />
    <polygon points="312.5,153.1797 322.5,157.1797 312.5,161.1797 316.5,157.1797" stroke-width="1" style="fill:#181818;stroke:#181818;" />
    <line x1="38.5" y1="157.1797" x2="318.5" y2="157.1797" stroke-width="1" style="stroke:#181818;" />
    <text x="45.5" y="152.3232" textLength="221" lengthAdjust="spacing" font-family="sans-serif" font-size="13" style="fill:black;">Оформление подписки по ИД товара</text>
    <polygon points="632.5,199.8828 642.5,203.8828 632.5,207.8828 636.5,203.8828" stroke-width="1" style="fill:#181818;stroke:#181818;" />
    <line x1="324.5" y1="203.8828" x2="638.5" y2="203.8828" stroke-width="1" style="stroke:#181818;" />
    <text x="331.5" y="182.6748" textLength="296" lengthAdjust="spacing" font-family="sans-serif" font-size="13" style="fill:black;">POST {base_url}/users/{user_id}/product_subscribe</text>
    <text x="335.5" y="199.0264" textLength="216" lengthAdjust="spacing" font-family="sans-serif" font-size="13" style="fill:black;">Список ИД продуктов для подписки</text>
    <polygon points="1020.5,246.5859 1030.5,250.5859 1020.5,254.5859 1024.5,250.5859" stroke-width="1" style="fill:#181818;stroke:#181818;" />
    <line x1="644.5" y1="250.5859" x2="1026.5" y2="250.5859" stroke-width="1" style="stroke:#181818;" />
    <text x="651.5" y="229.3779" textLength="364" lengthAdjust="spacing" font-family="sans-serif" font-size="13" style="fill:black;">INSERT INTO ProductSubscription (ProductID, UserID, isRead)</text>
    <text x="651.5" y="245.7295" textLength="220" lengthAdjust="spacing" font-family="sans-serif" font-size="13" style="fill:black;">VALUES ({product_id}, {user_id}, true)</text>
    <polygon points="655.5,276.9375 645.5,280.9375 655.5,284.9375 651.5,280.9375" stroke-width="1" style="fill:#181818;stroke:#181818;" />
    <line x1="649.5" y1="280.9375" x2="1031.5" y2="280.9375" stroke-width="1" stroke-dasharray="2 2" style="stroke:#181818;" />
    <text x="661.5" y="276.0811" textLength="168" lengthAdjust="spacing" font-family="sans-serif" font-size="13" style="fill:black;">Запись добавлена успешно</text>
    <polygon points="335.5,307.2891 325.5,311.2891 335.5,315.2891 331.5,311.2891" stroke-width="1" style="fill:#181818;stroke:#181818;" />
    <line x1="329.5" y1="311.2891" x2="643.5" y2="311.2891" stroke-width="1" stroke-dasharray="2 2" style="stroke:#181818;" />
    <text x="341.5" y="306.4326" textLength="262" lengthAdjust="spacing" font-family="sans-serif" font-size="13" style="fill:black;">Количество успешно добавленных записей</text>
    <polygon points="49.5,337.6406 39.5,341.6406 49.5,345.6406 45.5,341.6406" stroke-width="1" style="fill:#181818;stroke:#181818;" />
    <line x1="43.5" y1="341.6406" x2="323.5" y2="341.6406" stroke-width="1" stroke-dasharray="2 2" style="stroke:#181818;" />
    <text x="55.5" y="336.7842" textLength="262" lengthAdjust="spacing" font-family="sans-serif" font-size="13" style="fill:black;">Количество успешно добавленных записей</text>
  </g>
</svg>