<?xml version="1.0" encoding="utf-8"?>
<!DOCTYPE svg PUBLIC "-//W3C//DTD SVG 1.1//EN" "http://www.w3.org/Graphics/SVG/1.1/DTD/svg11.dtd">
<svg version="1.1" xmlns="http://www.w3.org/2000/svg" xmlns:xlink="http://www.w3.org/1999/xlink" xmlns:xml="http://www.w3.org/XML/1998/namespace" width="983px" height="385px" viewBox="0, 0, 983, 385" preserveAspectRatio="none" contentStyleType="text/css" zoomAndPan="magnify" style="background:#FFFFFF;">
  <defs />
  <g>
    <rect x="362.5" y="10" width="255" height="27.6094" id="_title" stroke-width="1" style="fill:none;stroke:none;" />
    <text x="367.5" y="29.5332" textLength="245" lengthAdjust="spacing" font-family="sans-serif" font-size="14" font-weight="bold" style="fill:black;">Уведомления о получении товара</text>
    <rect x="582.5" y="223.8828" width="10" height="46.7031" stroke-width="1" style="fill:white;stroke:#181818;" />
    <line x1="38" y1="124.8281" x2="38" y2="288.5859" stroke-width="0.5" stroke-dasharray="5 5" style="stroke:#181818;" />
    <line x1="180.5" y1="124.8281" x2="180.5" y2="288.5859" stroke-width="0.5" stroke-dasharray="5 5" style="stroke:#181818;" />
    <line x1="587.5" y1="124.8281" x2="587.5" y2="288.5859" stroke-width="0.5" stroke-dasharray="5 5" style="stroke:#181818;" />
    <line x1="944.5" y1="124.8281" x2="944.5" y2="288.5859" stroke-width="0.5" stroke-dasharray="5 5" style="stroke:#181818;" />
    <text x="5" y="121.752" textLength="61" lengthAdjust="spacing" font-family="sans-serif" font-size="14" style="fill:black;">Customer</text>
    <ellipse cx="38.5" cy="55.7188" rx="8" ry="8" stroke-width="0.5" style="fill:#E2E2F0;stroke:#181818;" />
    <path d="M38.5 63.7188 L38.5 90.7188 M25.5 71.7188 L51.5 71.7188 M38.5 90.7188 L25.5 105.7188 M38.5 90.7188 L51.5 105.7188" stroke-width="0.5" style="fill:none;stroke:#181818;" />
    <text x="5" y="302.1191" textLength="61" lengthAdjust="spacing" font-family="sans-serif" font-size="14" style="fill:black;">Customer</text>
    <ellipse cx="38.5" cy="313.6953" rx="8" ry="8" stroke-width="0.5" style="fill:#E2E2F0;stroke:#181818;" />
    <path d="M38.5 321.6953 L38.5 348.6953 M25.5 329.6953 L51.5 329.6953 M38.5 348.6953 L25.5 363.6953 M38.5 348.6953 L51.5 363.6953" stroke-width="0.5" style="fill:none;stroke:#181818;" />
    <text x="169" y="104.1426" textLength="17" lengthAdjust="spacing" font-family="sans-serif" font-size="14" style="fill:black;">ЛК</text>
    <text x="138.5" y="121.752" textLength="78" lengthAdjust="spacing" font-family="sans-serif" font-size="14" style="fill:black;">MarketPlace</text>
    <path d="M160 61.6094 L160 85.6094 M160 73.6094 L177 73.6094" stroke-width="0.5" style="fill:none;stroke:#181818;" />
    <ellipse cx="189" cy="73.6094" rx="12" ry="12" stroke-width="0.5" style="fill:#E2E2F0;stroke:#181818;" />
    <text x="169" y="302.1191" textLength="17" lengthAdjust="spacing" font-family="sans-serif" font-size="14" style="fill:black;">ЛК</text>
    <text x="138.5" y="319.7285" textLength="78" lengthAdjust="spacing" font-family="sans-serif" font-size="14" style="fill:black;">MarketPlace</text>
    <path d="M160 326.8047 L160 350.8047 M160 338.8047 L177 338.8047" stroke-width="0.5" style="fill:none;stroke:#181818;" />
    <ellipse cx="189" cy="338.8047" rx="12" ry="12" stroke-width="0.5" style="fill:#E2E2F0;stroke:#181818;" />
    <text x="552" y="104.1426" textLength="65" lengthAdjust="spacing" font-family="sans-serif" font-size="14" style="fill:black;">BACKEND</text>
    <text x="545.5" y="121.752" textLength="78" lengthAdjust="spacing" font-family="sans-serif" font-size="14" style="fill:black;">MarketPlace</text>
    <ellipse cx="587.5" cy="73.6094" rx="12" ry="12" stroke-width="0.5" style="fill:#E2E2F0;stroke:#181818;" />
    <polygon points="583.5,61.6094 589.5,56.6094 587.5,61.6094 589.5,66.6094 583.5,61.6094" stroke-width="1" style="fill:#181818;stroke:#181818;" />
    <text x="552" y="302.1191" textLength="65" lengthAdjust="spacing" font-family="sans-serif" font-size="14" style="fill:black;">BACKEND</text>
    <text x="545.5" y="319.7285" textLength="78" lengthAdjust="spacing" font-family="sans-serif" font-size="14" style="fill:black;">MarketPlace</text>
    <ellipse cx="587.5" cy="338.8047" rx="12" ry="12" stroke-width="0.5" style="fill:#E2E2F0;stroke:#181818;" />
    <polygon points="583.5,326.8047 589.5,321.8047 587.5,326.8047 589.5,331.8047 583.5,326.8047" stroke-width="1" style="fill:#181818;stroke:#181818;" />
    <text x="932" y="104.1426" textLength="19" lengthAdjust="spacing" font-family="sans-serif" font-size="14" style="fill:black;">DB</text>
    <text x="918.5" y="121.752" textLength="46" lengthAdjust="spacing" font-family="sans-serif" font-size="14" style="fill:black;">MySQL</text>
    <path d="M926.5 53.6094 C926.5 43.6094 944.5 43.6094 944.5 43.6094 C944.5 43.6094 962.5 43.6094 962.5 53.6094 L962.5 79.6094 C962.5 89.6094 944.5 89.6094 944.5 89.6094 C944.5 89.6094 926.5 89.6094 926.5 79.6094 L926.5 53.6094" stroke-width="1.5" style="fill:#E2E2F0;stroke:#181818;" />
    <path d="M926.5 53.6094 C926.5 63.6094 944.5 63.6094 944.5 63.6094 C944.5 63.6094 962.5 63.6094 962.5 53.6094" stroke-width="1.5" style="fill:none;stroke:#181818;" />
    <text x="932" y="302.1191" textLength="19" lengthAdjust="spacing" font-family="sans-serif" font-size="14" style="fill:black;">DB</text>
    <text x="918.5" y="319.7285" textLength="46" lengthAdjust="spacing" font-family="sans-serif" font-size="14" style="fill:black;">MySQL</text>
    <path d="M926.5 332.8047 C926.5 322.8047 944.5 322.8047 944.5 322.8047 C944.5 322.8047 962.5 322.8047 962.5 332.8047 L962.5 358.8047 C962.5 368.8047 944.5 368.8047 944.5 368.8047 C944.5 368.8047 926.5 368.8047 926.5 358.8047 L926.5 332.8047" stroke-width="1.5" style="fill:#E2E2F0;stroke:#181818;" />
    <path d="M926.5 332.8047 C926.5 342.8047 944.5 342.8047 944.5 342.8047 C944.5 342.8047 962.5 342.8047 962.5 332.8047" stroke-width="1.5" style="fill:none;stroke:#181818;" />
    <rect x="582.5" y="223.8828" width="10" height="46.7031" stroke-width="1" style="fill:white;stroke:#181818;" />
    <polygon points="168.5,153.1797 178.5,157.1797 168.5,161.1797 172.5,157.1797" stroke-width="1" style="fill:#181818;stroke:#181818;" />
    <line x1="38.5" y1="157.1797" x2="174.5" y2="157.1797" stroke-width="1" style="stroke:#181818;" />
    <text x="45.5" y="152.3232" textLength="118" lengthAdjust="spacing" font-family="sans-serif" font-size="13" style="fill:black;">Удаление подписки</text>
    <path d="M149 170.1797 L149 196.1797 L976 196.1797 L976 180.1797 L966 170.1797 L149 170.1797" stroke-width="0.5" style="fill:#FEFFDD;stroke:#181818;" />
    <path d="M966 170.1797 L966 180.1797 L976 180.1797 L966 170.1797" stroke-width="0.5" style="fill:#FEFFDD;stroke:#181818;" />
    <text x="431.5" y="188.6748" textLength="253" lengthAdjust="spacing" font-family="sans-serif" font-size="13" style="fill:black;">Удаляем подписку пользователя на товар</text>
    <polygon points="570.5,219.8828 580.5,223.8828 570.5,227.8828 574.5,223.8828" stroke-width="1" style="fill:#181818;stroke:#181818;" />
    <line x1="180.5" y1="223.8828" x2="576.5" y2="223.8828" stroke-width="1" style="stroke:#181818;" />
    <text x="187.5" y="219.0264" textLength="383" lengthAdjust="spacing" font-family="sans-serif" font-size="13" style="fill:black;">DELETE {base_url}/users/{user_id}/product_subscribe/{product_id}</text>
    <polygon points="932.5,266.5859 942.5,270.5859 932.5,274.5859 936.5,270.5859" stroke-width="1" style="fill:#181818;stroke:#181818;" />
    <line x1="587.5" y1="270.5859" x2="938.5" y2="270.5859" stroke-width="1" style="stroke:#181818;" />
    <text x="594.5" y="249.3779" textLength="213" lengthAdjust="spacing" font-family="sans-serif" font-size="13" style="fill:black;">DELETE FROM ProductSubscription</text>
    <text x="594.5" y="265.7295" textLength="328" lengthAdjust="spacing" font-family="sans-serif" font-size="13" style="fill:black;">WHERE ProductID = {product_id} and UserID = {user_id}</text>
  </g>
</svg>