<?xml version="1.0" encoding="utf-8"?>
<!DOCTYPE svg PUBLIC "-//W3C//DTD SVG 1.1//EN" "http://www.w3.org/Graphics/SVG/1.1/DTD/svg11.dtd">
<svg version="1.1" xmlns="http://www.w3.org/2000/svg" xmlns:xlink="http://www.w3.org/1999/xlink" xmlns:xml="http://www.w3.org/XML/1998/namespace" width="571px" height="294px" viewBox="0, 0, 571, 294" preserveAspectRatio="none" contentStyleType="text/css" zoomAndPan="magnify" style="background:#FFFFFF;">
  <defs />
  <g>
    <rect x="215.5" y="10" width="121" height="27.6094" id="_title" stroke-width="1" style="fill:none;stroke:none;" />
    <text x="220.5" y="29.5332" textLength="111" lengthAdjust="spacing" font-family="sans-serif" font-size="14" font-weight="bold" style="fill:black;">Messages page</text>
    <text x="6" y="57.0664" textLength="132" lengthAdjust="spacing" font-family="sans-serif" font-size="12" style="fill:black;">Иванов Иван Иванович</text>
    <rect x="482" y="45.6094" width="63" height="18.0938" stroke-width="1" style="fill:#EEEEEE;stroke:black;" />
    <text x="484" y="60.0664" textLength="39" lengthAdjust="spacing" font-family="sans-serif" font-size="12" style="fill:black;">UserID</text>
    <line x1="534" y1="45.6094" x2="534" y2="63.7031" stroke-width="1" style="stroke:black;" />
    <polygon points="537,51.6094 543,51.6094 540,58.7031" stroke-width="1" style="fill:black;stroke:black;" />
    <rect x="482" y="63.7031" width="81" height="44.2813" stroke-width="1" style="fill:#EEEEEE;stroke:black;" />
    <text x="485" y="76.1602" textLength="48" lengthAdjust="spacing" font-family="sans-serif" font-size="12" style="fill:black;">Корзина</text>
    <text x="485" y="91.2539" textLength="42" lengthAdjust="spacing" font-family="sans-serif" font-size="12" style="fill:black;">Заказы</text>
    <text x="485" y="106.3477" textLength="79" lengthAdjust="spacing" font-family="sans-serif" font-size="12" style="fill:black;">Уведомления</text>
    <rect x="8.5" y="70.2031" width="60" height="19.0938" rx="5" ry="5" stroke-width="2.5" style="fill:#EEEEEE;stroke:black;" />
    <text x="16.5" y="84.6602" textLength="44" lengthAdjust="spacing" font-family="sans-serif" font-size="12" style="fill:black;">Каталог</text>
    <line x1="6" y1="97.2969" x2="480" y2="97.2969" stroke-width="1" style="stroke:#AAAAAA;" />
    <text x="11" y="131.3477" textLength="17" lengthAdjust="spacing" font-family="sans-serif" font-size="12" font-weight="bold" style="fill:black;">ИД</text>
    <text x="40" y="131.3477" textLength="101" lengthAdjust="spacing" font-family="sans-serif" font-size="12" font-weight="bold" style="fill:black;">Описание товара</text>
    <text x="151" y="131.3477" textLength="132" lengthAdjust="spacing" font-family="sans-serif" font-size="12" font-weight="bold" style="fill:black;">Количество на складе</text>
    <text x="288" y="131.3477" textLength="95" lengthAdjust="spacing" font-family="sans-serif" font-size="12" font-weight="bold" style="fill:black;">Стоимость (руб.)</text>
    <text x="385" y="131.3477" textLength="62" lengthAdjust="spacing" font-family="sans-serif" font-size="12" style="fill:black;">Прочитано</text>
    <text x="28" y="148.4414" textLength="7" lengthAdjust="spacing" font-family="sans-serif" font-size="12" style="fill:black;">1</text>
    <rect x="10" y="138.5313" width="10" height="10" stroke-width="1.5" style="fill:none;stroke:black;" />
    <polygon points="11,141.9844 14,144.9844 21,135.9844 14,142.9844" stroke-width="1.5" style="fill:black;stroke:black;" />
    <text x="37" y="148.4414" textLength="109" lengthAdjust="spacing" font-family="sans-serif" font-size="12" style="fill:black;">Описание товара 1</text>
    <text x="151" y="148.4414" textLength="14" lengthAdjust="spacing" font-family="sans-serif" font-size="12" style="fill:black;">10</text>
    <line x1="149" y1="151.0781" x2="200" y2="151.0781" stroke-width="1" style="stroke:black;" />
    <line x1="149" y1="148.0781" x2="149" y2="150.0781" stroke-width="1" style="stroke:black;" />
    <line x1="200" y1="148.0781" x2="200" y2="150.0781" stroke-width="1" style="stroke:black;" />
    <text x="285" y="148.4414" textLength="24" lengthAdjust="spacing" font-family="sans-serif" font-size="12" style="fill:black;">1,00</text>
    <text x="385" y="148.4414" textLength="15" lengthAdjust="spacing" font-family="sans-serif" font-size="12" style="fill:black;">Да</text>
    <text x="28" y="167.5352" textLength="7" lengthAdjust="spacing" font-family="sans-serif" font-size="12" style="fill:black;">2</text>
    <rect x="10" y="157.625" width="10" height="10" stroke-width="1.5" style="fill:none;stroke:black;" />
    <text x="37" y="167.5352" textLength="109" lengthAdjust="spacing" font-family="sans-serif" font-size="12" style="fill:black;">Описание товара 2</text>
    <text x="151" y="167.5352" textLength="14" lengthAdjust="spacing" font-family="sans-serif" font-size="12" style="fill:black;">20</text>
    <line x1="149" y1="170.1719" x2="200" y2="170.1719" stroke-width="1" style="stroke:black;" />
    <line x1="149" y1="167.1719" x2="149" y2="169.1719" stroke-width="1" style="stroke:black;" />
    <line x1="200" y1="167.1719" x2="200" y2="169.1719" stroke-width="1" style="stroke:black;" />
    <text x="285" y="167.5352" textLength="24" lengthAdjust="spacing" font-family="sans-serif" font-size="12" style="fill:black;">2,00</text>
    <text x="385" y="167.5352" textLength="21" lengthAdjust="spacing" font-family="sans-serif" font-size="12" style="fill:black;">Нет</text>
    <text x="28" y="186.6289" textLength="7" lengthAdjust="spacing" font-family="sans-serif" font-size="12" style="fill:black;">3</text>
    <rect x="10" y="176.7188" width="10" height="10" stroke-width="1.5" style="fill:none;stroke:black;" />
    <text x="37" y="186.6289" textLength="109" lengthAdjust="spacing" font-family="sans-serif" font-size="12" style="fill:black;">Описание товара 3</text>
    <text x="151" y="186.6289" textLength="7" lengthAdjust="spacing" font-family="sans-serif" font-size="12" style="fill:black;">0</text>
    <line x1="149" y1="189.2656" x2="192" y2="189.2656" stroke-width="1" style="stroke:black;" />
    <line x1="149" y1="186.2656" x2="149" y2="188.2656" stroke-width="1" style="stroke:black;" />
    <line x1="192" y1="186.2656" x2="192" y2="188.2656" stroke-width="1" style="stroke:black;" />
    <text x="285" y="186.6289" textLength="24" lengthAdjust="spacing" font-family="sans-serif" font-size="12" style="fill:black;">3,00</text>
    <text x="385" y="186.6289" textLength="15" lengthAdjust="spacing" font-family="sans-serif" font-size="12" style="fill:black;">Да</text>
    <line x1="7" y1="117.8906" x2="36" y2="117.8906" stroke-width="1" style="stroke:black;" />
    <line x1="384" y1="192.2656" x2="448" y2="192.2656" stroke-width="1" style="stroke:black;" />
    <line x1="36" y1="117.8906" x2="147" y2="117.8906" stroke-width="1" style="stroke:black;" />
    <line x1="147" y1="117.8906" x2="284" y2="117.8906" stroke-width="1" style="stroke:black;" />
    <line x1="284" y1="117.8906" x2="384" y2="117.8906" stroke-width="1" style="stroke:black;" />
    <line x1="384" y1="117.8906" x2="448" y2="117.8906" stroke-width="1" style="stroke:black;" />
    <line x1="7" y1="192.2656" x2="36" y2="192.2656" stroke-width="1" style="stroke:black;" />
    <line x1="36" y1="192.2656" x2="147" y2="192.2656" stroke-width="1" style="stroke:black;" />
    <line x1="147" y1="192.2656" x2="284" y2="192.2656" stroke-width="1" style="stroke:black;" />
    <line x1="284" y1="192.2656" x2="384" y2="192.2656" stroke-width="1" style="stroke:black;" />
    <line x1="7" y1="117.8906" x2="7" y2="134.9844" stroke-width="1" style="stroke:black;" />
    <line x1="448" y1="173.1719" x2="448" y2="192.2656" stroke-width="1" style="stroke:black;" />
    <line x1="448" y1="154.0781" x2="448" y2="173.1719" stroke-width="1" style="stroke:black;" />
    <line x1="448" y1="134.9844" x2="448" y2="154.0781" stroke-width="1" style="stroke:black;" />
    <line x1="448" y1="117.8906" x2="448" y2="134.9844" stroke-width="1" style="stroke:black;" />
    <line x1="7" y1="173.1719" x2="7" y2="192.2656" stroke-width="1" style="stroke:black;" />
    <line x1="7" y1="154.0781" x2="7" y2="173.1719" stroke-width="1" style="stroke:black;" />
    <line x1="7" y1="134.9844" x2="7" y2="154.0781" stroke-width="1" style="stroke:black;" />
    <rect x="452" y="117.8906" width="15" height="74.375" stroke-width="1" style="fill:none;stroke:black;" />
    <line x1="452" y1="129.8906" x2="467" y2="129.8906" stroke-width="1" style="stroke:black;" />
    <line x1="452" y1="180.2656" x2="467" y2="180.2656" stroke-width="1" style="stroke:black;" />
    <path d="M459 121.8906 L462 126.8906 L456 126.8906 L459 121.8906" stroke-width="1" style="fill:black;stroke:black;" />
    <path d="M459 189.2656 L462 184.2656 L456 184.2656 L459 189.2656" stroke-width="1" style="fill:black;stroke:black;" />
    <line x1="6" y1="109.3438" x2="479" y2="109.3438" stroke-width="1" style="stroke:black;" />
    <line x1="6" y1="193.2656" x2="479" y2="193.2656" stroke-width="1" style="stroke:black;" />
    <line x1="6" y1="109.3438" x2="6" y2="193.2656" stroke-width="1" style="stroke:black;" />
    <line x1="479" y1="109.3438" x2="479" y2="193.2656" stroke-width="1" style="stroke:black;" />
    <rect x="12" y="101.7969" width="170" height="15.0938" stroke-width="1" style="fill:white;stroke:white;" />
    <text x="12" y="114.2539" textLength="170" lengthAdjust="spacing" font-family="sans-serif" font-size="12" font-weight="bold" style="fill:black;">Список товаров из подписки:</text>
    <rect x="8.5" y="212.8594" width="84" height="19.0938" rx="5" ry="5" stroke-width="2.5" style="fill:#EEEEEE;stroke:black;" />
    <text x="17.5" y="227.3164" textLength="66" lengthAdjust="spacing" font-family="sans-serif" font-size="12" style="fill:black;">Отписаться</text>
    <rect x="8.5" y="238.9531" width="76" height="19.0938" rx="5" ry="5" stroke-width="2.5" style="fill:#EEEEEE;stroke:black;" />
    <text x="15.5" y="253.4102" textLength="62" lengthAdjust="spacing" font-family="sans-serif" font-size="12" style="fill:black;">Прочитано</text>
    <rect x="8.5" y="265.0469" width="148" height="19.0938" rx="5" ry="5" stroke-width="2.5" style="fill:#EEEEEE;stroke:black;" />
    <text x="27" y="279.5039" textLength="111" lengthAdjust="spacing" font-family="sans-serif" font-size="12" style="fill:black;">Добавить в корзину</text>
    <line x1="5" y1="43.6094" x2="480" y2="43.6094" stroke-width="1" style="stroke:black;" />
    <line x1="480" y1="43.6094" x2="548" y2="43.6094" stroke-width="1" style="stroke:black;" />
    <line x1="5" y1="287.6406" x2="480" y2="287.6406" stroke-width="1" style="stroke:black;" />
    <line x1="480" y1="287.6406" x2="548" y2="287.6406" stroke-width="1" style="stroke:black;" />
    <line x1="5" y1="43.6094" x2="5" y2="66.7031" stroke-width="1" style="stroke:black;" />
    <line x1="548" y1="92.7969" x2="548" y2="100.7969" stroke-width="1" style="stroke:black;" />
    <line x1="548" y1="43.6094" x2="548" y2="66.7031" stroke-width="1" style="stroke:black;" />
    <line x1="5" y1="235.4531" x2="5" y2="261.5469" stroke-width="1" style="stroke:black;" />
    <line x1="5" y1="100.7969" x2="5" y2="209.3594" stroke-width="1" style="stroke:black;" />
    <line x1="548" y1="235.4531" x2="548" y2="261.5469" stroke-width="1" style="stroke:black;" />
    <line x1="5" y1="66.7031" x2="5" y2="92.7969" stroke-width="1" style="stroke:black;" />
    <line x1="548" y1="100.7969" x2="548" y2="209.3594" stroke-width="1" style="stroke:black;" />
    <line x1="548" y1="66.7031" x2="548" y2="92.7969" stroke-width="1" style="stroke:black;" />
    <line x1="5" y1="261.5469" x2="5" y2="287.6406" stroke-width="1" style="stroke:black;" />
    <line x1="5" y1="209.3594" x2="5" y2="235.4531" stroke-width="1" style="stroke:black;" />
    <line x1="548" y1="261.5469" x2="548" y2="287.6406" stroke-width="1" style="stroke:black;" />
    <line x1="5" y1="92.7969" x2="5" y2="100.7969" stroke-width="1" style="stroke:black;" />
    <line x1="548" y1="209.3594" x2="548" y2="235.4531" stroke-width="1" style="stroke:black;" />
    <rect x="482" y="63.7031" width="81" height="44.2813" stroke-width="1" style="fill:#EEEEEE;stroke:black;" />
    <text x="485" y="76.1602" textLength="48" lengthAdjust="spacing" font-family="sans-serif" font-size="12" style="fill:black;">Корзина</text>
    <text x="485" y="91.2539" textLength="42" lengthAdjust="spacing" font-family="sans-serif" font-size="12" style="fill:black;">Заказы</text>
    <text x="485" y="106.3477" textLength="79" lengthAdjust="spacing" font-family="sans-serif" font-size="12" style="fill:black;">Уведомления</text>
    <rect x="452" y="117.8906" width="15" height="74.375" stroke-width="1" style="fill:none;stroke:black;" />
    <line x1="452" y1="129.8906" x2="467" y2="129.8906" stroke-width="1" style="stroke:black;" />
    <line x1="452" y1="180.2656" x2="467" y2="180.2656" stroke-width="1" style="stroke:black;" />
    <path d="M459 121.8906 L462 126.8906 L456 126.8906 L459 121.8906" stroke-width="1" style="fill:black;stroke:black;" />
    <path d="M459 189.2656 L462 184.2656 L456 184.2656 L459 189.2656" stroke-width="1" style="fill:black;stroke:black;" />
  </g>
</svg>